<svg id="kity_svg_6" xmlns="http://www.w3.org/2000/svg" xmlns:xlink="http://www.w3.org/1999/xlink" version="1.1" width="1415" height="2987" style="background: rgb(251, 251, 251); visibility: visible;" viewBox="0 0 1415 2987"><defs id="kity_defs_7"><linearGradient id="kity_linearGradient_17" x1="0" y1="0" x2="0" y2="1"><stop id="kity_stop_18" offset="0" stop-color="rgb(255, 255, 255)"></stop><stop id="kity_stop_19" offset="1" stop-color="rgb(204, 204, 204)"></stop></linearGradient><marker id="kity_marker_4" orient="auto" refX="6" refY="0" viewBox="-7 -7 14 14" markerWidth="7" markerHeight="7" markerUnits="userSpaceOnUse"><path id="kity_path_5" fill="rgb(115, 161, 191)" stroke="none" d="M6,0A6,6,0,1,1,-6,0A6,6,0,1,1,6,0"></path></marker><marker id="kity_marker_2" orient="auto" refX="6" refY="0" viewBox="-7 -7 14 14" markerWidth="7" markerHeight="7" markerUnits="userSpaceOnUse"><path id="kity_path_3" fill="rgb(115, 161, 191)" stroke="none" d="M6,0A6,6,0,1,1,-6,0A6,6,0,1,1,6,0"></path></marker></defs><g id="kity_g_8"><g id="minder1" text-rendering="geometricPrecision"><g id="minder_connect_group1"><path id="kity_path_31" fill="none" stroke="rgb(115, 161, 191)" stroke-width="1" d="M89.00000178068876,1679.5000053569674A186.5,1055,0,0,1,275.50000178068876,624.5000053569674"></path><path id="kity_path_55" fill="none" stroke="rgb(115, 161, 191)" stroke-width="1" d="M89.00000178068876,1679.5000053569674A186.5,65,0,0,0,275.50000178068876,1744.5000053569674"></path><path id="kity_path_87" fill="none" stroke="rgb(115, 161, 191)" stroke-width="1" d="M89.00000178068876,1679.5000053569674A186.5,1091,0,0,0,275.50000178068876,2770.5000053569674"></path><path id="kity_path_96" fill="none" stroke="rgb(115, 161, 191)" stroke-width="1" d="M486.50000178068876,624.5000053569674C506.50000178068876,624.5000053569674,506.50000178068876,295.50000535696745,526.5000017806888,295.50000535696745"></path><path id="kity_path_112" fill="none" stroke="rgb(115, 161, 191)" stroke-width="1" d="M599.5000017806888,295.50000535696745C619.5000017806888,295.50000535696745,619.5000017806888,69.00000535696745,639.5000017806888,69.00000535696745"></path><path id="kity_path_120" fill="none" stroke="rgb(115, 161, 191)" stroke-width="1" d="M599.5000017806888,295.50000535696745C619.5000017806888,295.50000535696745,619.5000017806888,224.00000535696745,639.5000017806888,224.00000535696745"></path><path id="kity_path_128" fill="none" stroke="rgb(115, 161, 191)" stroke-width="1" d="M599.5000017806888,295.50000535696745C619.5000017806888,295.50000535696745,619.5000017806888,386.00000535696745,639.5000017806888,386.00000535696745"></path><path id="kity_path_136" fill="none" stroke="rgb(115, 161, 191)" stroke-width="1" d="M599.5000017806888,295.50000535696745C619.5000017806888,295.50000535696745,619.5000017806888,521.0000053569674,639.5000017806888,521.0000053569674"></path><path id="kity_path_144" fill="none" stroke="rgb(115, 161, 191)" stroke-width="1" d="M486.50000178068876,624.5000053569674C506.50000178068876,624.5000053569674,506.50000178068876,952.0000053569674,526.5000017806888,952.0000053569674"></path><path id="kity_path_152" fill="none" stroke="rgb(115, 161, 191)" stroke-width="1" d="M486.50000178068876,624.5000053569674C506.50000178068876,624.5000053569674,506.50000178068876,708.0000053569674,526.5000017806888,708.0000053569674"></path><path id="kity_path_164" fill="none" stroke="rgb(115, 161, 191)" stroke-width="1" d="M653.5000017806888,708.5000053569674C673.5000017806888,708.0000053569674,673.5000017806888,614.0000053569674,693.5000017806888,614.0000053569674"></path><path id="kity_path_180" fill="none" stroke="rgb(115, 161, 191)" stroke-width="1" d="M653.5000017806888,708.5000053569674C673.5000017806888,708.0000053569674,673.5000017806888,708.5000053569674,693.5000017806888,708.5000053569674"></path><path id="kity_path_188" fill="none" stroke="rgb(115, 161, 191)" stroke-width="1" d="M653.5000017806888,708.5000053569674C673.5000017806888,708.0000053569674,673.5000017806888,803.0000053569674,693.5000017806888,803.0000053569674"></path><path id="kity_path_209" fill="none" stroke="rgb(115, 161, 191)" stroke-width="1" d="M511.50000178068876,1744.5000053569674C531.5000017806888,1744.5000053569674,531.5000017806888,1134.5000053569674,551.5000017806888,1134.5000053569674"></path><path id="kity_path_233" fill="none" stroke="rgb(115, 161, 191)" stroke-width="1" d="M511.50000178068876,1744.5000053569674C531.5000017806888,1744.5000053569674,531.5000017806888,1547.5000053569674,551.5000017806888,1547.5000053569674"></path><path id="kity_path_250" fill="none" stroke="rgb(115, 161, 191)" stroke-width="1" d="M665.5000017806888,1547.5000053569674C685.5000017806888,1547.5000053569674,685.5000017806888,1369.5000053569674,705.5000017806888,1369.5000053569674"></path><path id="kity_path_258" fill="none" stroke="rgb(115, 161, 191)" stroke-width="1" d="M665.5000017806888,1547.5000053569674C685.5000017806888,1547.5000053569674,685.5000017806888,1638.0000053569674,705.5000017806888,1638.0000053569674"></path><path id="kity_path_266" fill="none" stroke="rgb(115, 161, 191)" stroke-width="1" d="M980.5000017806888,1369.5000053569674C1000.5000017806888,1369.5000053569674,1000.5000017806888,1212.5000053569674,1020.5000017806888,1212.5000053569674"></path><path id="kity_path_274" fill="none" stroke="rgb(115, 161, 191)" stroke-width="1" d="M980.5000017806888,1369.5000053569674C1000.5000017806888,1369.5000053569674,1000.5000017806888,1301.0000053569674,1020.5000017806888,1301.0000053569674"></path><path id="kity_path_282" fill="none" stroke="rgb(115, 161, 191)" stroke-width="1" d="M980.5000017806888,1369.5000053569674C1000.5000017806888,1369.5000053569674,1000.5000017806888,1389.5000053569674,1020.5000017806888,1389.5000053569674"></path><path id="kity_path_290" fill="none" stroke="rgb(115, 161, 191)" stroke-width="1" d="M980.5000017806888,1369.5000053569674C1000.5000017806888,1369.5000053569674,1000.5000017806888,1441.5000053569674,1020.5000017806888,1441.5000053569674"></path><path id="kity_path_303" fill="none" stroke="rgb(115, 161, 191)" stroke-width="1" d="M980.5000017806888,1369.5000053569674C1000.5000017806888,1369.5000053569674,1000.5000017806888,1524.0000053569674,1020.5000017806888,1524.0000053569674"></path><path id="kity_path_314" fill="none" stroke="rgb(115, 161, 191)" stroke-width="1" d="M1133.5000017806888,1524.5000053569674C1153.5000017806888,1524.0000053569674,1153.5000017806888,1496.0000053569674,1173.5000017806888,1496.0000053569674"></path><path id="kity_path_322" fill="none" stroke="rgb(115, 161, 191)" stroke-width="1" d="M1133.5000017806888,1524.5000053569674C1153.5000017806888,1524.0000053569674,1153.5000017806888,1553.0000053569674,1173.5000017806888,1553.0000053569674"></path><path id="kity_path_360" fill="none" stroke="rgb(115, 161, 191)" stroke-width="1" d="M665.5000017806888,1547.5000053569674C685.5000017806888,1547.5000053569674,685.5000017806888,1723.0000053569674,705.5000017806888,1723.0000053569674"></path><path id="kity_path_371" fill="none" stroke="rgb(115, 161, 191)" stroke-width="1" d="M511.50000178068876,1744.5000053569674C531.5000017806888,1744.5000053569674,531.5000017806888,1809.5000053569674,551.5000017806888,1809.5000053569674"></path><path id="kity_path_386" fill="none" stroke="rgb(115, 161, 191)" stroke-width="1" d="M613.5000017806888,1134.5000053569674C633.5000017806888,1134.5000053569674,633.5000017806888,1108.5000053569674,653.5000017806888,1108.5000053569674"></path><path id="kity_path_394" fill="none" stroke="rgb(115, 161, 191)" stroke-width="1" d="M613.5000017806888,1134.5000053569674C633.5000017806888,1134.5000053569674,633.5000017806888,1160.5000053569674,653.5000017806888,1160.5000053569674"></path><path id="kity_path_402" fill="none" stroke="rgb(115, 161, 191)" stroke-width="1" d="M511.50000178068876,1744.5000053569674C531.5000017806888,1744.5000053569674,531.5000017806888,1893.5000053569674,551.5000017806888,1893.5000053569674"></path><path id="kity_path_410" fill="none" stroke="rgb(115, 161, 191)" stroke-width="1" d="M597.5000017806888,1893.5000053569674C617.5000017806888,1893.5000053569674,617.5000017806888,1893.5000053569674,637.5000017806888,1893.5000053569674"></path><path id="kity_path_419" fill="none" stroke="rgb(115, 161, 191)" stroke-width="1" d="M511.50000178068876,1744.5000053569674C531.5000017806888,1744.5000053569674,531.5000017806888,2037.0000053569674,551.5000017806888,2037.0000053569674"></path><path id="kity_path_431" fill="none" stroke="rgb(115, 161, 191)" stroke-width="1" d="M736.5000017806888,952.5000053569674C756.5000017806888,952.0000053569674,756.5000017806888,895.0000053569674,776.5000017806888,895.0000053569674"></path><path id="kity_path_440" fill="none" stroke="rgb(115, 161, 191)" stroke-width="1" d="M736.5000017806888,952.5000053569674C756.5000017806888,952.0000053569674,756.5000017806888,987.0000053569674,776.5000017806888,987.0000053569674"></path><path id="kity_path_459" fill="none" stroke="rgb(115, 161, 191)" stroke-width="1" d="M736.5000017806888,952.5000053569674C756.5000017806888,952.0000053569674,756.5000017806888,1044.0000053569674,776.5000017806888,1044.0000053569674"></path><path id="kity_path_474" fill="none" stroke="rgb(115, 161, 191)" stroke-width="1" d="M511.50000178068876,1744.5000053569674C531.5000017806888,1744.5000053569674,531.5000017806888,2352.0000053569674,551.5000017806888,2352.0000053569674"></path><path id="kity_path_482" fill="none" stroke="rgb(115, 161, 191)" stroke-width="1" d="M679.5000017806888,2352.5000053569674C699.5000017806888,2352.0000053569674,699.5000017806888,2216.0000053569674,719.5000017806888,2216.0000053569674"></path><path id="kity_path_491" fill="none" stroke="rgb(115, 161, 191)" stroke-width="1" d="M679.5000017806888,2352.5000053569674C699.5000017806888,2352.0000053569674,699.5000017806888,2342.5000053569674,719.5000017806888,2342.5000053569674"></path><path id="kity_path_500" fill="none" stroke="rgb(115, 161, 191)" stroke-width="1" d="M679.5000017806888,2352.5000053569674C699.5000017806888,2352.0000053569674,699.5000017806888,2478.5000053569674,719.5000017806888,2478.5000053569674"></path><path id="kity_path_518" fill="none" stroke="rgb(115, 161, 191)" stroke-width="1" d="M364.50000178068876,2770.5000053569674C384.50000178068876,2770.5000053569674,384.50000178068876,2635.5000053569674,404.50000178068876,2635.5000053569674"></path><path id="kity_path_527" fill="none" stroke="rgb(115, 161, 191)" stroke-width="1" d="M364.50000178068876,2770.5000053569674C384.50000178068876,2770.5000053569674,384.50000178068876,2788.0000053569674,404.50000178068876,2788.0000053569674"></path><path id="kity_path_536" fill="none" stroke="rgb(115, 161, 191)" stroke-width="1" d="M364.50000178068876,2770.5000053569674C384.50000178068876,2770.5000053569674,384.50000178068876,2923.5000053569674,404.50000178068876,2923.5000053569674"></path></g><g id="minder_node1"><path id="node_outline1" fill="rgb(115, 161, 191)" stroke="rgb(115, 161, 191)" d="M25.500001780688763,1659.5000053569674h127a5,5,0,0,1,5,5v30a5,5,0,0,1,-5,5h-127a5,5,0,0,1,-5,-5v-30a5,5,0,0,1,5,-5z" stroke-width="3"></path><g id="node_text1" fill="white"><text id="kity_text_22" text-rendering="inherit" font-size="16" dy=".8em" y="1669.1000053212047" x="44.50000178068876">ER Diagram</text></g></g><g id="kity_g_14" display="none"><path id="kity_path_15" fill="rgba(0, 92, 153, 0.5)" stroke="none" d="M991.5000017806888,1718.5000053569674h220v15h-220z"></path><path id="kity_path_16" fill="none" stroke="rgb(0, 76, 128)" d="M991.5000017806888,1733.5000053569674L1211.5000017806888,1733.5000053569674" stroke-width="1"></path></g><g id="minder_node2"><g id="node_expander1" style="cursor: pointer;"><path id="kity_path_36" fill="white" stroke="gray" d="M276.5000051483512,624.4999896362424A6,6,0,1,1,264.5000051483512,624.4999896362424A6,6,0,1,1,276.5000051483512,624.4999896362424"></path><path id="kity_path_37" fill="none" stroke="gray" d="M266.0000051483512,624.4999896362424L275.0000051483512,624.4999896362424"></path></g><path id="node_outline2" fill="rgb(238, 243, 246)" stroke="rgb(115, 161, 191)" d="M280.5000062659383,575.4999901726842h203a3,3,0,0,1,3,3v92a3,3,0,0,1,-3,3h-203a3,3,0,0,1,-3,-3v-92a3,3,0,0,1,3,-3z" stroke-width="1"></path><g id="node_text2" fill="black"><text id="kity_text_33" text-rendering="inherit" font-size="14" dy=".8em" y="651.3999901413918" x="345.5000062659383">Entity (Set)</text></g><image id="kity_image_94" xmlns:xlink="http://www.w3.org/1999/xlink" xlink:href="http://kityminder-img.gz.bcebos.com/9d013d5a9999dd4e89a4f46d6b5d900ced2c3c39" x="297.5000062659383" y="581.4999901726842" width="169" height="67"></image></g><g id="minder_node5"><g id="node_expander4" style="cursor: pointer;"><path id="kity_path_60" fill="white" stroke="gray" d="M276.5000051483512,1744.500006325543A6,6,0,1,1,264.5000051483512,1744.500006325543A6,6,0,1,1,276.5000051483512,1744.500006325543"></path><path id="kity_path_61" fill="none" stroke="gray" d="M266.0000051483512,1744.500006325543L275.0000051483512,1744.500006325543"></path></g><path id="node_outline5" fill="rgb(238, 243, 246)" stroke="rgb(115, 161, 191)" d="M280.5000059530139,1664.5000072941184h228a3,3,0,0,1,3,3v154a3,3,0,0,1,-3,3h-228a3,3,0,0,1,-3,-3v-154a3,3,0,0,1,3,-3z" stroke-width="1"></path><g id="node_text5" fill="black"><text id="kity_text_57" text-rendering="inherit" font-size="14" dy=".8em" y="1800.400007262826" x="324.5000059530139">Relationship (Set)</text></g><image id="kity_image_298" xmlns:xlink="http://www.w3.org/1999/xlink" xlink:href="http://kityminder-img.gz.bcebos.com/10c6ea17405ff83c86ec110151668cb52db02d47" x="297.5000059530139" y="1670.5000072941184" width="194" height="126"></image><g id="kity_g_382" style="cursor: pointer;"><path id="kity_path_383" fill="none" stroke="none" d="M450.0000077858567,1801.0000072941184h12a2,2,0,0,1,2,2v13a2,2,0,0,1,-2,2h-12a2,2,0,0,1,-2,-2v-13a2,2,0,0,1,2,-2z"></path><path id="kity_path_384" fill="black" stroke="none" d="M459.0000078231096,1812.0000071972609H453.0000078231096V1811.0000071972609h6L459.0000078231096,1812.0000071972609L459.0000078231096,1812.0000071972609zM459.0000078231096,1810.0000071972609H453.0000078231096V1809.0000071972609h6V1810.0000071972609zM459.0000078231096,1808.0000071972609H453.0000078231096V1807.0000071972609h6V1808.0000071972609zM458.5000078231096,1814.0000071972609H452.0000078231096V1805.0000071972609h8v7.5M459.0000078231096,1815.0000071972609l2,-2V1804.0000071972609H451.0000078231096v11"></path></g></g><g id="minder_node9"><g id="node_expander8" style="cursor: pointer;"><path id="kity_path_92" fill="white" stroke="gray" d="M276.5000051483512,2770.5000216141343A6,6,0,1,1,264.5000051483512,2770.5000216141343A6,6,0,1,1,276.5000051483512,2770.5000216141343"></path><path id="kity_path_93" fill="none" stroke="gray" d="M266.0000051483512,2770.5000216141343L275.0000051483512,2770.5000216141343"></path></g><path id="node_outline9" fill="rgb(238, 243, 246)" stroke="rgb(115, 161, 191)" d="M280.50000555068254,2757.5000216141343h81a3,3,0,0,1,3,3v20a3,3,0,0,1,-3,3h-81a3,3,0,0,1,-3,-3v-20a3,3,0,0,1,3,-3z" stroke-width="1"></path><g id="node_text9" fill="black"><text id="kity_text_89" text-rendering="inherit" font-size="14" dy=".8em" y="2761.400021582842" x="297.50000555068254">Design</text></g></g><g id="minder_node10"><g id="node_expander9" style="cursor: pointer;"><path id="kity_path_101" fill="white" stroke="gray" d="M526.5000088736415,295.49998473376036A6,6,0,1,1,514.5000088736415,295.49998473376036A6,6,0,1,1,526.5000088736415,295.49998473376036"></path><path id="kity_path_102" fill="none" stroke="gray" d="M516.0000088736415,295.49998473376036L525.0000088736415,295.49998473376036"></path></g><path id="node_outline10" fill="none" stroke="none" d="M531.5000091120601,284.49998473376036h63a5,5,0,0,1,5,5v12a5,5,0,0,1,-5,5h-63a5,5,0,0,1,-5,-5v-12a5,5,0,0,1,5,-5z" stroke-width="3"></path><g id="node_text10" fill="black"><text id="kity_text_98" text-rendering="inherit" font-size="12" dy=".8em" y="287.69998470693827" x="536.5000091120601">Attribute</text></g></g><g id="minder_node12"><g id="node_expander11" style="cursor: pointer;" display="none"><path id="kity_path_117" fill="white" stroke="gray" d="M639.5000105574727,68.99998135864735A6,6,0,1,1,627.5000105574727,68.99998135864735A6,6,0,1,1,639.5000105574727,68.99998135864735"></path><path id="kity_path_118" fill="none" stroke="gray"></path></g><path id="node_outline12" fill="none" stroke="none" d="M644.5000117048621,20.49998191744089h171a5,5,0,0,1,5,5v87a5,5,0,0,1,-5,5h-171a5,5,0,0,1,-5,-5v-87a5,5,0,0,1,5,-5z" stroke-width="3"></path><g id="node_text12" fill="black"><text id="kity_text_114" text-rendering="inherit" font-size="12" dy=".8em" y="98.6999818906188" x="710.5000117048621">Simple</text></g><image id="kity_image_159" xmlns:xlink="http://www.w3.org/1999/xlink" xlink:href="http://kityminder-img.gz.bcebos.com/df5dff61bed15d96ed0d085c28a8696f6c6d664f" x="649.5000117048621" y="25.49998191744089" width="161" height="70"></image></g><g id="minder_node13"><g id="node_expander12" style="cursor: pointer;" display="none"><path id="kity_path_125" fill="white" stroke="gray" d="M639.5000105574727,223.99998366832733A6,6,0,1,1,627.5000105574727,223.99998366832733A6,6,0,1,1,639.5000105574727,223.99998366832733"></path><path id="kity_path_126" fill="none" stroke="gray"></path></g><path id="node_outline13" fill="none" stroke="none" d="M644.5000118091702,147.4999846443534h210a5,5,0,0,1,5,5v143a5,5,0,0,1,-5,5h-210a5,5,0,0,1,-5,-5v-143a5,5,0,0,1,5,-5z" stroke-width="3"></path><g id="node_text13" fill="black"><text id="kity_text_122" text-rendering="inherit" font-size="12" dy=".8em" y="281.6999846175313" x="717.5000118091702">Composite</text></g><image id="kity_image_160" xmlns:xlink="http://www.w3.org/1999/xlink" xlink:href="http://kityminder-img.gz.bcebos.com/bf78461d45d5bdc6986e2530873f74163cfd80db" x="649.5000118091702" y="152.4999846443534" width="200" height="126"></image></g><g id="minder_node14"><g id="node_expander13" style="cursor: pointer;" display="none"><path id="kity_path_133" fill="white" stroke="gray" d="M639.5000105574727,385.99998608231544A6,6,0,1,1,627.5000105574727,385.99998608231544A6,6,0,1,1,639.5000105574727,385.99998608231544"></path><path id="kity_path_134" fill="none" stroke="gray"></path></g><path id="node_outline14" fill="none" stroke="none" d="M644.5000117793679,330.4999867454171h210a5,5,0,0,1,5,5v101a5,5,0,0,1,-5,5h-210a5,5,0,0,1,-5,-5v-101a5,5,0,0,1,5,-5z" stroke-width="3"></path><g id="node_text14" fill="black"><text id="kity_text_130" text-rendering="inherit" font-size="12" dy=".8em" y="422.699986718595" x="715.5000117793679">Multivalued</text></g><image id="kity_image_161" xmlns:xlink="http://www.w3.org/1999/xlink" xlink:href="http://kityminder-img.gz.bcebos.com/5174485a038b5cbefbd1a23db38d9441bbf4d813" x="649.5000117793679" y="335.4999867454171" width="200" height="84"></image></g><g id="minder_node15"><g id="node_expander14" style="cursor: pointer;" display="none"><path id="kity_path_141" fill="white" stroke="gray" d="M639.5000105574727,520.9999880939722A6,6,0,1,1,627.5000105574727,520.9999880939722A6,6,0,1,1,639.5000105574727,520.9999880939722"></path><path id="kity_path_142" fill="none" stroke="gray"></path></g><path id="node_outline15" fill="none" stroke="none" d="M644.5000117942691,471.4999886676669h190a5,5,0,0,1,5,5v89a5,5,0,0,1,-5,5h-190a5,5,0,0,1,-5,-5v-89a5,5,0,0,1,5,-5z" stroke-width="3"></path><g id="node_text15" fill="black"><text id="kity_text_138" text-rendering="inherit" font-size="12" dy=".8em" y="551.6999886408448" x="716.5000117942691">Derived</text></g><image id="kity_image_162" xmlns:xlink="http://www.w3.org/1999/xlink" xlink:href="http://kityminder-img.gz.bcebos.com/bf61f4ce19f4edc5512d485a33e0dbc835025f9a" x="649.5000117942691" y="476.4999886676669" width="180" height="72"></image></g><g id="minder_node16"><g id="node_expander15" style="cursor: pointer;"><path id="kity_path_149" fill="white" stroke="gray" d="M526.5000088736415,951.9999945163727A6,6,0,1,1,514.5000088736415,951.9999945163727A6,6,0,1,1,526.5000088736415,951.9999945163727"></path><path id="kity_path_150" fill="none" stroke="gray" d="M516.0000088736415,951.9999945163727L525.0000088736415,951.9999945163727"></path></g><path id="node_outline16" fill="none" stroke="none" d="M531.5000091120601,938.4999945089221h200a5,5,0,0,1,5,5v17a5,5,0,0,1,-5,5h-200a5,5,0,0,1,-5,-5v-17a5,5,0,0,1,5,-5z" stroke-width="3"></path><g id="node_text16" fill="black"><text id="kity_text_146" text-rendering="inherit" font-size="12" dy=".8em" y="943.6999944821" x="536.5000091120601">Weak Entity (No primary key)</text></g><g id="kity_g_467" style="cursor: pointer;"><path id="kity_path_468" fill="none" stroke="none" d="M713.0000117048621,942.9999945089221h12a2,2,0,0,1,2,2v13a2,2,0,0,1,-2,2h-12a2,2,0,0,1,-2,-2v-13a2,2,0,0,1,2,-2z"></path><path id="kity_path_469" fill="black" stroke="none" d="M722.000011742115,953.9999944120646H716.000011742115V952.9999944120646h6L722.000011742115,953.9999944120646L722.000011742115,953.9999944120646zM722.000011742115,951.9999944120646H716.000011742115V950.9999944120646h6V951.9999944120646zM722.000011742115,949.9999944120646H716.000011742115V948.9999944120646h6V949.9999944120646zM721.500011742115,955.9999944120646H715.000011742115V946.9999944120646h8v7.5M722.000011742115,956.9999944120646l2,-2V945.9999944120646H714.000011742115v11"></path></g></g><g id="minder_node17"><g id="node_expander16" style="cursor: pointer;"><path id="kity_path_157" fill="white" stroke="gray" d="M526.5000088736415,707.9999908804893A6,6,0,1,1,514.5000088736415,707.9999908804893A6,6,0,1,1,526.5000088736415,707.9999908804893"></path><path id="kity_path_158" fill="none" stroke="gray" d="M516.0000088736415,707.9999908804893L525.0000088736415,707.9999908804893"></path></g><path id="node_outline17" fill="none" stroke="none" d="M531.5000091120601,694.4999908730388h117a5,5,0,0,1,5,5v17a5,5,0,0,1,-5,5h-117a5,5,0,0,1,-5,-5v-17a5,5,0,0,1,5,-5z" stroke-width="3"></path><g id="node_text17" fill="black"><text id="kity_text_154" text-rendering="inherit" font-size="12" dy=".8em" y="699.6999908462167" x="536.5000091120601">Key(Super Key)</text></g><g id="kity_g_202" style="cursor: pointer;"><path id="kity_path_203" fill="none" stroke="none" d="M630.0000104680657,698.9999908730388h12a2,2,0,0,1,2,2v13a2,2,0,0,1,-2,2h-12a2,2,0,0,1,-2,-2v-13a2,2,0,0,1,2,-2z"></path><path id="kity_path_204" fill="black" stroke="none" d="M639.0000105053186,709.9999907761812H633.0000105053186V708.9999907761812h6L639.0000105053186,709.9999907761812L639.0000105053186,709.9999907761812zM639.0000105053186,707.9999907761812H633.0000105053186V706.9999907761812h6V707.9999907761812zM639.0000105053186,705.9999907761812H633.0000105053186V704.9999907761812h6V705.9999907761812zM638.5000105053186,711.9999907761812H632.0000105053186V702.9999907761812h8v7.5M639.0000105053186,712.9999907761812l2,-2V701.9999907761812H631.0000105053186v11"></path></g></g><g id="minder_node18"><g id="node_expander17" style="cursor: pointer;" display="none"><path id="kity_path_169" fill="white" stroke="gray" d="M693.5000113621354,613.9999894797802A6,6,0,1,1,681.5000113621354,613.9999894797802A6,6,0,1,1,693.5000113621354,613.9999894797802"></path><path id="kity_path_170" fill="none" stroke="gray" d="M683.0000113621354,613.9999894797802L692.0000113621354,613.9999894797802"></path></g><path id="node_outline18" fill="none" stroke="none" d="M698.500011600554,600.4999894723296h112a5,5,0,0,1,5,5v17a5,5,0,0,1,-5,5h-112a5,5,0,0,1,-5,-5v-17a5,5,0,0,1,5,-5z" stroke-width="3"></path><g id="node_text18" fill="black"><text id="kity_text_166" text-rendering="inherit" font-size="12" dy=".8em" y="605.6999894455075" x="703.500011600554">candidate key</text></g><g id="kity_g_196" style="cursor: pointer;"><path id="kity_path_197" fill="none" stroke="none" d="M792.0000128820539,604.9999894723296h12a2,2,0,0,1,2,2v13a2,2,0,0,1,-2,2h-12a2,2,0,0,1,-2,-2v-13a2,2,0,0,1,2,-2z"></path><path id="kity_path_198" fill="black" stroke="none" d="M801.0000129193068,615.9999893754721H795.0000129193068V614.9999893754721h6L801.0000129193068,615.9999893754721L801.0000129193068,615.9999893754721zM801.0000129193068,613.9999893754721H795.0000129193068V612.9999893754721h6V613.9999893754721zM801.0000129193068,611.9999893754721H795.0000129193068V610.9999893754721h6V611.9999893754721zM800.5000129193068,617.9999893754721H794.0000129193068V608.9999893754721h8v7.5M801.0000129193068,618.9999893754721l2,-2V607.9999893754721H793.0000129193068v11"></path></g></g><g id="minder_node20"><g id="node_expander19" style="cursor: pointer;" display="none"><path id="kity_path_185" fill="white" stroke="gray" d="M693.5000113621354,708.4999908879399A6,6,0,1,1,681.5000113621354,708.4999908879399A6,6,0,1,1,693.5000113621354,708.4999908879399"></path><path id="kity_path_186" fill="none" stroke="gray"></path></g><path id="node_outline20" fill="none" stroke="none" d="M698.5000120773911,657.4999914392829h163a5,5,0,0,1,5,5v92a5,5,0,0,1,-5,5h-163a5,5,0,0,1,-5,-5v-92a5,5,0,0,1,5,-5z" stroke-width="3"></path><g id="node_text20" fill="black"><text id="kity_text_182" text-rendering="inherit" font-size="12" dy=".8em" y="737.6999914124608" x="735.5000120773911">Primary key</text></g><image id="kity_image_195" xmlns:xlink="http://www.w3.org/1999/xlink" xlink:href="http://kityminder-img.gz.bcebos.com/0fd5597104a87fc6f680be6dd348dd4e3bbce9e0" x="703.5000120773911" y="662.4999914392829" width="153" height="70"></image><g id="kity_g_199" style="cursor: pointer;"><path id="kity_path_200" fill="none" stroke="none" d="M811.0000131651759,736.9999914392829h12a2,2,0,0,1,2,2v13a2,2,0,0,1,-2,2h-12a2,2,0,0,1,-2,-2v-13a2,2,0,0,1,2,-2z"></path><path id="kity_path_201" fill="black" stroke="none" d="M820.0000132024288,747.9999913424253H814.0000132024288V746.9999913424253h6L820.0000132024288,747.9999913424253L820.0000132024288,747.9999913424253zM820.0000132024288,745.9999913424253H814.0000132024288V744.9999913424253h6V745.9999913424253zM820.0000132024288,743.9999913424253H814.0000132024288V742.9999913424253h6V743.9999913424253zM819.5000132024288,749.9999913424253H813.0000132024288V740.9999913424253h8v7.5M820.0000132024288,750.9999913424253l2,-2V739.9999913424253H812.0000132024288v11"></path></g></g><g id="minder_node21"><g id="node_expander20" style="cursor: pointer;" display="none"><path id="kity_path_193" fill="white" stroke="gray" d="M693.5000113621354,802.9999922960997A6,6,0,1,1,681.5000113621354,802.9999922960997A6,6,0,1,1,693.5000113621354,802.9999922960997"></path><path id="kity_path_194" fill="none" stroke="gray"></path></g><path id="node_outline21" fill="none" stroke="none" d="M698.500011600554,789.4999922886491h117a5,5,0,0,1,5,5v17a5,5,0,0,1,-5,5h-117a5,5,0,0,1,-5,-5v-17a5,5,0,0,1,5,-5z" stroke-width="3"></path><g id="node_text21" fill="black"><text id="kity_text_190" text-rendering="inherit" font-size="12" dy=".8em" y="794.699992261827" x="703.500011600554">Composite key</text></g><g id="kity_g_205" style="cursor: pointer;"><path id="kity_path_206" fill="none" stroke="none" d="M797.0000129565597,793.9999922886491h12a2,2,0,0,1,2,2v13a2,2,0,0,1,-2,2h-12a2,2,0,0,1,-2,-2v-13a2,2,0,0,1,2,-2z"></path><path id="kity_path_207" fill="black" stroke="none" d="M806.0000129938126,804.9999921917915H800.0000129938126V803.9999921917915h6L806.0000129938126,804.9999921917915L806.0000129938126,804.9999921917915zM806.0000129938126,802.9999921917915H800.0000129938126V801.9999921917915h6V802.9999921917915zM806.0000129938126,800.9999921917915H800.0000129938126V799.9999921917915h6V800.9999921917915zM805.5000129938126,806.9999921917915H799.0000129938126V797.9999921917915h8v7.5M806.0000129938126,807.9999921917915l2,-2V796.9999921917915H798.0000129938126v11"></path></g></g><g id="minder_node22"><g id="node_expander21" style="cursor: pointer;"><path id="kity_path_214" fill="white" stroke="gray" d="M551.5000092461705,1134.4999972358346A6,6,0,1,1,539.5000092461705,1134.4999972358346A6,6,0,1,1,551.5000092461705,1134.4999972358346"></path><path id="kity_path_215" fill="none" stroke="gray" d="M541.0000092461705,1134.4999972358346L550.0000092461705,1134.4999972358346"></path></g><path id="node_outline22" fill="none" stroke="none" d="M556.5000094845891,1123.4999972358346h52a5,5,0,0,1,5,5v12a5,5,0,0,1,-5,5h-52a5,5,0,0,1,-5,-5v-12a5,5,0,0,1,5,-5z" stroke-width="3"></path><g id="node_text22" fill="black"><text id="kity_text_211" text-rendering="inherit" font-size="12" dy=".8em" y="1126.6999972090125" x="561.5000094845891">Degree</text></g></g><g id="minder_node25"><g id="node_expander24" style="cursor: pointer;"><path id="kity_path_238" fill="white" stroke="gray" d="M551.5000092461705,1547.5000033900142A6,6,0,1,1,539.5000092461705,1547.5000033900142A6,6,0,1,1,551.5000092461705,1547.5000033900142"></path><path id="kity_path_239" fill="none" stroke="gray" d="M541.0000092461705,1547.5000033900142L550.0000092461705,1547.5000033900142"></path></g><path id="node_outline25" fill="none" stroke="none" d="M556.5000094845891,1527.5000033900142h104a5,5,0,0,1,5,5v30a5,5,0,0,1,-5,5h-104a5,5,0,0,1,-5,-5v-30a5,5,0,0,1,5,-5z" stroke-width="3"></path><g id="node_text25" fill="black"><text id="kity_text_235" text-rendering="inherit" font-size="12" dy=".8em" y="1530.700003363192" x="561.5000094845891">Cardinality</text><text id="kity_text_248" text-rendering="inherit" font-size="12" dy=".8em" y="1548.700003363192" x="561.5000094845891">Constraints</text></g><a id="kity_a_356" xmlns:xlink="http://www.w3.org/1999/xlink" xlink:href="http://xzhuah.student.ust.hk/~xzhuah/BlogFile/Academics/ER_diagram.html" target="_blank" xlink:title="Another introduction(http://xzhuah.student.ust.hk/~xzhuah/BlogFile/Academics/ER_diagram.html)" style="cursor: pointer;"><path id="kity_path_358" fill="rgba(255, 255, 255, 0)" stroke="none" d="M635.5000105574727,1536.5000033155084h16a4,4,0,0,1,4,4v14a4,4,0,0,1,-4,4h-16a4,4,0,0,1,-4,-4v-14a4,4,0,0,1,4,-4z"></path><path id="kity_path_357" fill="#666" stroke="none" d="M650.1140105574727,1552.7240033155083h-1.278c-1.668,0,-3.07,-1.07,-3.599,-2.556h4.877c0.707,0,1.278,-0.571,1.278,-1.278V1546.3340033155084c0,-0.707,-0.571,-1.278,-1.278,-1.278h-4.877C645.7660105574727,1543.5710033155083,647.1680105574727,1542.5000033155084,648.8360105574727,1542.5000033155084h1.278c2.116,0,3.834,1.716,3.834,3.834V1548.8900033155085C653.9480105574727,1551.0080033155084,652.2300105574727,1552.7240033155083,650.1140105574727,1552.7240033155083zM638.6120105574727,1547.6120033155084c0,-0.707,0.573,-1.278,1.278,-1.278h7.668c0.707,0,1.278,0.571,1.278,1.278S648.2650105574727,1548.8900033155085,647.5580105574727,1548.8900033155085H639.8900105574727C639.1850105574727,1548.8900033155085,638.6120105574727,1548.3190033155083,638.6120105574727,1547.6120033155084zM636.0560105574727,1546.3340033155084V1548.8900033155085c0,0.707,0.573,1.278,1.278,1.278h4.877c-0.528,1.486,-1.932,2.556,-3.599,2.556H637.3340105574727C635.2160105574727,1552.7240033155083,633.5000105574727,1551.0080033155084,633.5000105574727,1548.8900033155085V1546.3340033155084C633.5000105574727,1544.2160033155083,635.2160105574727,1542.5000033155084,637.3340105574727,1542.5000033155084h1.278c1.667,0,3.071,1.071,3.599,2.556H637.3340105574727C636.6290105574727,1545.0560033155084,636.0560105574727,1545.6270033155083,636.0560105574727,1546.3340033155084z"></path></a></g><g id="minder_node27"><g id="node_expander26" style="cursor: pointer;"><path id="kity_path_255" fill="white" stroke="gray" d="M705.5000115409493,1369.5000007376075A6,6,0,1,1,693.5000115409493,1369.5000007376075A6,6,0,1,1,705.5000115409493,1369.5000007376075"></path><path id="kity_path_256" fill="none" stroke="gray" d="M695.0000115409493,1369.5000007376075L704.0000115409493,1369.5000007376075"></path></g><path id="node_outline27" fill="none" stroke="none" d="M710.5000117793679,1358.5000007376075h265a5,5,0,0,1,5,5v12a5,5,0,0,1,-5,5h-265a5,5,0,0,1,-5,-5v-12a5,5,0,0,1,5,-5z" stroke-width="3"></path><g id="node_text27" fill="black"><text id="kity_text_252" text-rendering="inherit" font-size="12" dy=".8em" y="1361.7000007107854" x="715.5000117793679">One (directed line) vs many (undirected line)</text></g></g><g id="minder_node28"><g id="node_expander27" style="cursor: pointer;" display="none"><path id="kity_path_263" fill="white" stroke="gray" d="M705.5000115409493,1638.0000047385693A6,6,0,1,1,693.5000115409493,1638.0000047385693A6,6,0,1,1,705.5000115409493,1638.0000047385693"></path><path id="kity_path_264" fill="none" stroke="gray"></path></g><path id="node_outline28" fill="none" stroke="none" d="M710.5000126436353,1596.5000050589442h210a5,5,0,0,1,5,5v73a5,5,0,0,1,-5,5h-210a5,5,0,0,1,-5,-5v-73a5,5,0,0,1,5,-5z" stroke-width="3"></path><g id="node_text28" fill="black"><text id="kity_text_260" text-rendering="inherit" font-size="12" dy=".8em" y="1642.7000050321221" x="773.5000126436353">Cardinality</text><text id="kity_text_351" text-rendering="inherit" font-size="12" dy=".8em" y="1660.7000050321221" x="773.5000126436353">limits&#xa0;</text></g><image id="kity_image_352" xmlns:xlink="http://www.w3.org/1999/xlink" xlink:href="http://kityminder-img.gz.bcebos.com/f204fbe7a5af746692098dfec6435be108878f14" x="715.5000126436353" y="1601.5000050589442" width="200" height="38"></image><g id="kity_g_353" style="cursor: pointer;"><path id="kity_path_354" fill="none" stroke="none" d="M843.0000136420131,1651.0000050589442h12a2,2,0,0,1,2,2v13a2,2,0,0,1,-2,2h-12a2,2,0,0,1,-2,-2v-13a2,2,0,0,1,2,-2z"></path><path id="kity_path_355" fill="black" stroke="none" d="M852.000013679266,1662.0000049620867H846.000013679266V1661.0000049620867h6L852.000013679266,1662.0000049620867L852.000013679266,1662.0000049620867zM852.000013679266,1660.0000049620867H846.000013679266V1659.0000049620867h6V1660.0000049620867zM852.000013679266,1658.0000049620867H846.000013679266V1657.0000049620867h6V1658.0000049620867zM851.500013679266,1664.0000049620867H845.000013679266V1655.0000049620867h8v7.5M852.000013679266,1665.0000049620867l2,-2V1654.0000049620867H844.000013679266v11"></path></g></g><g id="minder_node29" opacity="1"><g id="node_expander28" style="cursor: pointer;" display="none"><path id="kity_path_271" fill="white" stroke="gray" d="M1020.5000162348151,1212.4999983981252A6,6,0,1,1,1008.5000162348151,1212.4999983981252A6,6,0,1,1,1020.5000162348151,1212.4999983981252"></path><path id="kity_path_272" fill="none" stroke="gray"></path></g><path id="node_outline29" fill="none" stroke="none" d="M1025.5000164732337,1201.4999983981252h78a5,5,0,0,1,5,5v12a5,5,0,0,1,-5,5h-78a5,5,0,0,1,-5,-5v-12a5,5,0,0,1,5,-5z" stroke-width="3"></path><g id="node_text29" fill="black"><text id="kity_text_268" text-rendering="inherit" font-size="12" dy=".8em" y="1204.699998371303" x="1030.5000164732337">One to One</text></g></g><g id="minder_node30" opacity="1"><g id="node_expander29" style="cursor: pointer;" display="none"><path id="kity_path_279" fill="white" stroke="gray" d="M1020.5000162348151,1300.999999716878A6,6,0,1,1,1008.5000162348151,1300.999999716878A6,6,0,1,1,1020.5000162348151,1300.999999716878"></path><path id="kity_path_280" fill="none" stroke="gray"></path></g><path id="node_outline30" fill="none" stroke="none" d="M1025.500017233193,1253.5000002160668h210a5,5,0,0,1,5,5v85a5,5,0,0,1,-5,5h-210a5,5,0,0,1,-5,-5v-85a5,5,0,0,1,5,-5z" stroke-width="3"></path><g id="node_text30" fill="black"><text id="kity_text_276" text-rendering="inherit" font-size="12" dy=".8em" y="1326.7000001892447" x="1081.500017233193">One to many</text></g><image id="kity_image_297" xmlns:xlink="http://www.w3.org/1999/xlink" xlink:href="http://kityminder-img.gz.bcebos.com/b359ad70fe9b92f1e41aa4c7a5880702069ce3dd" x="1030.500017233193" y="1258.5000002160668" width="200" height="63"></image><g id="kity_g_299" style="cursor: pointer;"><path id="kity_path_300" fill="none" stroke="none" d="M1165.000018440187,1326.0000002160668h12a2,2,0,0,1,2,2v13a2,2,0,0,1,-2,2h-12a2,2,0,0,1,-2,-2v-13a2,2,0,0,1,2,-2z"></path><path id="kity_path_301" fill="black" stroke="none" d="M1174.0000184774399,1337.0000001192093H1168.0000184774399V1336.0000001192093h6L1174.0000184774399,1337.0000001192093L1174.0000184774399,1337.0000001192093zM1174.0000184774399,1335.0000001192093H1168.0000184774399V1334.0000001192093h6V1335.0000001192093zM1174.0000184774399,1333.0000001192093H1168.0000184774399V1332.0000001192093h6V1333.0000001192093zM1173.5000184774399,1339.0000001192093H1167.0000184774399V1330.0000001192093h8v7.5M1174.0000184774399,1340.0000001192093l2,-2V1329.0000001192093H1166.0000184774399v11"></path></g></g><g id="minder_node31" opacity="1"><g id="node_expander30" style="cursor: pointer;" display="none"><path id="kity_path_287" fill="white" stroke="gray" d="M1020.5000162348151,1389.5000010356307A6,6,0,1,1,1008.5000162348151,1389.5000010356307A6,6,0,1,1,1020.5000162348151,1389.5000010356307"></path><path id="kity_path_288" fill="none" stroke="gray"></path></g><path id="node_outline31" fill="none" stroke="none" d="M1025.5000164732337,1378.5000010356307h84a5,5,0,0,1,5,5v12a5,5,0,0,1,-5,5h-84a5,5,0,0,1,-5,-5v-12a5,5,0,0,1,5,-5z" stroke-width="3"></path><g id="node_text31" fill="black"><text id="kity_text_284" text-rendering="inherit" font-size="12" dy=".8em" y="1381.7000010088086" x="1030.5000164732337">Many to one</text></g></g><g id="minder_node32" opacity="1"><g id="node_expander31" style="cursor: pointer;" display="none"><path id="kity_path_295" fill="white" stroke="gray" d="M1020.5000162348151,1441.500001810491A6,6,0,1,1,1008.5000162348151,1441.500001810491A6,6,0,1,1,1020.5000162348151,1441.500001810491"></path><path id="kity_path_296" fill="none" stroke="gray"></path></g><path id="node_outline32" fill="none" stroke="none" d="M1025.5000164732337,1430.500001810491h94a5,5,0,0,1,5,5v12a5,5,0,0,1,-5,5h-94a5,5,0,0,1,-5,-5v-12a5,5,0,0,1,5,-5z" stroke-width="3"></path><g id="node_text32" fill="black"><text id="kity_text_292" text-rendering="inherit" font-size="12" dy=".8em" y="1433.700001783669" x="1030.5000164732337">Many to many</text></g></g><g id="kity_g_12" display="none"><path id="kity_path_13" fill="none" stroke="rgb(66, 94, 112)" d="M996.5000017806888,1738.5000053569674h210a5,5,0,0,1,5,5v85a5,5,0,0,1,-5,5h-210a5,5,0,0,1,-5,-5v-85a5,5,0,0,1,5,-5z" stroke-width="5"></path></g><g id="minder_node33"><g id="node_expander32" style="cursor: pointer;"><path id="kity_path_308" fill="white" stroke="gray" d="M1020.5000162348151,1524.0000030398369A6,6,0,1,1,1008.5000162348151,1524.0000030398369A6,6,0,1,1,1020.5000162348151,1524.0000030398369"></path><path id="kity_path_309" fill="none" stroke="gray" d="M1010.0000162348151,1524.0000030398369L1019.0000162348151,1524.0000030398369"></path></g><path id="node_outline33" fill="none" stroke="none" d="M1025.5000164732337,1510.5000030323863h103a5,5,0,0,1,5,5v17a5,5,0,0,1,-5,5h-103a5,5,0,0,1,-5,-5v-17a5,5,0,0,1,5,-5z" stroke-width="3"></path><g id="node_text33" fill="black"><text id="kity_text_305" text-rendering="inherit" font-size="12" dy=".8em" y="1515.7000030055642" x="1030.5000164732337">Participation</text></g><g id="kity_g_310" style="cursor: pointer;"><path id="kity_path_311" fill="none" stroke="none" d="M1110.000017620623,1515.0000030323863h12a2,2,0,0,1,2,2v13a2,2,0,0,1,-2,2h-12a2,2,0,0,1,-2,-2v-13a2,2,0,0,1,2,-2z"></path><path id="kity_path_312" fill="black" stroke="none" d="M1119.000017657876,1526.0000029355288H1113.000017657876V1525.0000029355288h6L1119.000017657876,1526.0000029355288L1119.000017657876,1526.0000029355288zM1119.000017657876,1524.0000029355288H1113.000017657876V1523.0000029355288h6V1524.0000029355288zM1119.000017657876,1522.0000029355288H1113.000017657876V1521.0000029355288h6V1522.0000029355288zM1118.500017657876,1528.0000029355288H1112.000017657876V1519.0000029355288h8v7.5M1119.000017657876,1529.0000029355288l2,-2V1518.0000029355288H1111.000017657876v11"></path></g></g><g id="minder_node34"><g id="node_expander33" style="cursor: pointer;" display="none"><path id="kity_path_319" fill="white" stroke="gray" d="M1173.5000185146928,1496.0000026226044A6,6,0,1,1,1161.5000185146928,1496.0000026226044A6,6,0,1,1,1173.5000185146928,1496.0000026226044"></path><path id="kity_path_320" fill="none" stroke="gray" d="M1163.0000185146928,1496.0000026226044L1172.0000185146928,1496.0000026226044"></path></g><path id="node_outline34" fill="none" stroke="none" d="M1178.5000187531114,1482.5000026151538h212a5,5,0,0,1,5,5v17a5,5,0,0,1,-5,5h-212a5,5,0,0,1,-5,-5v-17a5,5,0,0,1,5,-5z" stroke-width="3"></path><g id="node_text34" fill="black"><text id="kity_text_316" text-rendering="inherit" font-size="12" dy=".8em" y="1487.7000025883317" x="1183.5000187531114">Total participation (double line)</text></g><g id="kity_g_345" style="cursor: pointer;"><path id="kity_path_346" fill="none" stroke="none" d="M1372.0000215247273,1487.0000026151538h12a2,2,0,0,1,2,2v13a2,2,0,0,1,-2,2h-12a2,2,0,0,1,-2,-2v-13a2,2,0,0,1,2,-2z"></path><path id="kity_path_347" fill="black" stroke="none" d="M1381.0000215619802,1498.0000025182962H1375.0000215619802V1497.0000025182962h6L1381.0000215619802,1498.0000025182962L1381.0000215619802,1498.0000025182962zM1381.0000215619802,1496.0000025182962H1375.0000215619802V1495.0000025182962h6V1496.0000025182962zM1381.0000215619802,1494.0000025182962H1375.0000215619802V1493.0000025182962h6V1494.0000025182962zM1380.5000215619802,1500.0000025182962H1374.0000215619802V1491.0000025182962h8v7.5M1381.0000215619802,1501.0000025182962l2,-2V1490.0000025182962H1373.0000215619802v11"></path></g></g><g id="minder_node35"><g id="node_expander34" style="cursor: pointer;" display="none"><path id="kity_path_327" fill="white" stroke="gray" d="M1173.5000185146928,1553.0000034719706A6,6,0,1,1,1161.5000185146928,1553.0000034719706A6,6,0,1,1,1173.5000185146928,1553.0000034719706"></path><path id="kity_path_328" fill="none" stroke="gray"></path></g><path id="node_outline35" fill="none" stroke="none" d="M1178.5000187531114,1539.50000346452h143a5,5,0,0,1,5,5v17a5,5,0,0,1,-5,5h-143a5,5,0,0,1,-5,-5v-17a5,5,0,0,1,5,-5z" stroke-width="3"></path><g id="node_text35" fill="black"><text id="kity_text_324" text-rendering="inherit" font-size="12" dy=".8em" y="1544.700003437698" x="1183.5000187531114">Partial participation</text></g><g id="kity_g_348" style="cursor: pointer;"><path id="kity_path_349" fill="none" stroke="none" d="M1303.0000204965472,1544.00000346452h12a2,2,0,0,1,2,2v13a2,2,0,0,1,-2,2h-12a2,2,0,0,1,-2,-2v-13a2,2,0,0,1,2,-2z"></path><path id="kity_path_350" fill="black" stroke="none" d="M1312.0000205338001,1555.0000033676624H1306.0000205338001V1554.0000033676624h6L1312.0000205338001,1555.0000033676624L1312.0000205338001,1555.0000033676624zM1312.0000205338001,1553.0000033676624H1306.0000205338001V1552.0000033676624h6V1553.0000033676624zM1312.0000205338001,1551.0000033676624H1306.0000205338001V1550.0000033676624h6V1551.0000033676624zM1311.5000205338001,1557.0000033676624H1305.0000205338001V1548.0000033676624h8v7.5M1312.0000205338001,1558.0000033676624l2,-2V1547.0000033676624H1304.0000205338001v11"></path></g></g><g id="minder_node38"><g id="node_expander37" style="cursor: pointer;" display="none"><path id="kity_path_365" fill="white" stroke="gray" d="M705.5000115409493,1723.000006005168A6,6,0,1,1,693.5000115409493,1723.000006005168A6,6,0,1,1,705.5000115409493,1723.000006005168"></path><path id="kity_path_366" fill="none" stroke="gray"></path></g><path id="node_outline38" fill="none" stroke="none" d="M710.5000117793679,1709.5000059977174h87a5,5,0,0,1,5,5v17a5,5,0,0,1,-5,5h-87a5,5,0,0,1,-5,-5v-17a5,5,0,0,1,5,-5z" stroke-width="3"></path><g id="node_text38" fill="black"><text id="kity_text_362" text-rendering="inherit" font-size="12" dy=".8em" y="1714.7000059708953" x="715.5000117793679">Each&#xa0;trick</text></g><g id="kity_g_367" style="cursor: pointer;"><path id="kity_path_368" fill="none" stroke="none" d="M779.0000126883388,1714.0000059977174h12a2,2,0,0,1,2,2v13a2,2,0,0,1,-2,2h-12a2,2,0,0,1,-2,-2v-13a2,2,0,0,1,2,-2z"></path><path id="kity_path_369" fill="black" stroke="none" d="M788.0000127255917,1725.0000059008598H782.0000127255917V1724.0000059008598h6L788.0000127255917,1725.0000059008598L788.0000127255917,1725.0000059008598zM788.0000127255917,1723.0000059008598H782.0000127255917V1722.0000059008598h6V1723.0000059008598zM788.0000127255917,1721.0000059008598H782.0000127255917V1720.0000059008598h6V1721.0000059008598zM787.5000127255917,1727.0000059008598H781.0000127255917V1718.0000059008598h8v7.5M788.0000127255917,1728.0000059008598l2,-2V1717.0000059008598H780.0000127255917v11"></path></g></g><g id="minder_node39"><g id="node_expander38" style="cursor: pointer;" display="none"><path id="kity_path_376" fill="white" stroke="gray" d="M551.5000092461705,1809.5000072941184A6,6,0,1,1,539.5000092461705,1809.5000072941184A6,6,0,1,1,551.5000092461705,1809.5000072941184"></path><path id="kity_path_377" fill="none" stroke="gray"></path></g><path id="node_outline39" fill="none" stroke="none" d="M556.5000106170774,1766.500007726252h210a5,5,0,0,1,5,5v76a5,5,0,0,1,-5,5h-210a5,5,0,0,1,-5,-5v-76a5,5,0,0,1,5,-5z" stroke-width="3"></path><g id="node_text39" fill="black"><text id="kity_text_373" text-rendering="inherit" font-size="12" dy=".8em" y="1830.70000769943" x="637.5000106170774">Role</text></g><image id="kity_image_378" xmlns:xlink="http://www.w3.org/1999/xlink" xlink:href="http://kityminder-img.gz.bcebos.com/484de6d1206cf002b030abd17f810adfec2c866b" x="561.5000106170774" y="1771.500007726252" width="200" height="54"></image><g id="kity_g_379" style="cursor: pointer;"><path id="kity_path_380" fill="none" stroke="none" d="M671.0000110790133,1830.000007726252h12a2,2,0,0,1,2,2v13a2,2,0,0,1,-2,2h-12a2,2,0,0,1,-2,-2v-13a2,2,0,0,1,2,-2z"></path><path id="kity_path_381" fill="black" stroke="none" d="M680.0000111162663,1841.0000076293945H674.0000111162663V1840.0000076293945h6L680.0000111162663,1841.0000076293945L680.0000111162663,1841.0000076293945zM680.0000111162663,1839.0000076293945H674.0000111162663V1838.0000076293945h6V1839.0000076293945zM680.0000111162663,1837.0000076293945H674.0000111162663V1836.0000076293945h6V1837.0000076293945zM679.5000111162663,1843.0000076293945H673.0000111162663V1834.0000076293945h8v7.5M680.0000111162663,1844.0000076293945l2,-2V1833.0000076293945H672.0000111162663v11"></path></g></g><g id="minder_node40"><g id="node_expander39" style="cursor: pointer;" display="none"><path id="kity_path_391" fill="white" stroke="gray" d="M653.500010766089,1108.4999968484044A6,6,0,1,1,641.500010766089,1108.4999968484044A6,6,0,1,1,653.500010766089,1108.4999968484044"></path><path id="kity_path_392" fill="none" stroke="gray"></path></g><path id="node_outline40" fill="none" stroke="none" d="M658.5000110045075,1097.4999968484044h46a5,5,0,0,1,5,5v12a5,5,0,0,1,-5,5h-46a5,5,0,0,1,-5,-5v-12a5,5,0,0,1,5,-5z" stroke-width="3"></path><g id="node_text40" fill="black"><text id="kity_text_388" text-rendering="inherit" font-size="12" dy=".8em" y="1100.6999968215823" x="663.5000110045075">Binary</text></g></g><g id="minder_node41"><g id="node_expander40" style="cursor: pointer;" display="none"><path id="kity_path_399" fill="white" stroke="gray" d="M653.500010766089,1160.4999976232648A6,6,0,1,1,641.500010766089,1160.4999976232648A6,6,0,1,1,653.500010766089,1160.4999976232648"></path><path id="kity_path_400" fill="none" stroke="gray"></path></g><path id="node_outline41" fill="none" stroke="none" d="M658.5000110045075,1149.4999976232648h142a5,5,0,0,1,5,5v12a5,5,0,0,1,-5,5h-142a5,5,0,0,1,-5,-5v-12a5,5,0,0,1,5,-5z" stroke-width="3"></path><g id="node_text41" fill="black"><text id="kity_text_396" text-rendering="inherit" font-size="12" dy=".8em" y="1152.6999975964427" x="663.5000110045075">Degree 3(Ternary) , 4,...</text></g></g><g id="minder_node42"><g id="node_expander41" style="cursor: pointer;"><path id="kity_path_407" fill="white" stroke="gray" d="M551.5000092461705,1893.500008545816A6,6,0,1,1,539.5000092461705,1893.500008545816A6,6,0,1,1,551.5000092461705,1893.500008545816"></path><path id="kity_path_408" fill="none" stroke="gray" d="M541.0000092461705,1893.500008545816L550.0000092461705,1893.500008545816"></path></g><path id="node_outline42" fill="none" stroke="none" d="M556.5000094845891,1882.500008545816h36a5,5,0,0,1,5,5v12a5,5,0,0,1,-5,5h-36a5,5,0,0,1,-5,-5v-12a5,5,0,0,1,5,-5z" stroke-width="3"></path><g id="node_text42" fill="black"><text id="kity_text_404" text-rendering="inherit" font-size="12" dy=".8em" y="1885.7000085189939" x="561.5000094845891">Keys</text></g></g><g id="minder_node43"><g id="node_expander42" style="cursor: pointer;" display="none"><path id="kity_path_415" fill="white" stroke="gray" d="M637.5000105276704,1893.500008545816A6,6,0,1,1,625.5000105276704,1893.500008545816A6,6,0,1,1,637.5000105276704,1893.500008545816"></path><path id="kity_path_416" fill="none" stroke="gray"></path></g><path id="node_outline43" fill="none" stroke="none" d="M642.500010766089,1882.500008545816h460a5,5,0,0,1,5,5v12a5,5,0,0,1,-5,5h-460a5,5,0,0,1,-5,-5v-12a5,5,0,0,1,5,-5z" stroke-width="3"></path><g id="node_text43" fill="black"><text id="kity_text_412" text-rendering="inherit" font-size="12" dy=".8em" y="1885.7000085189939" x="647.500010766089">combination of primary keys of the participating entity sets forms a super key&#xa0;</text></g></g><g id="minder_node44"><g id="node_expander43" style="cursor: pointer;" display="none"><path id="kity_path_424" fill="white" stroke="gray" d="M551.5000092461705,2037.0000106841326A6,6,0,1,1,539.5000092461705,2037.0000106841326A6,6,0,1,1,551.5000092461705,2037.0000106841326"></path><path id="kity_path_425" fill="none" stroke="gray"></path></g><path id="node_outline44" fill="none" stroke="none" d="M556.5000096336007,1934.5000120028853h210a5,5,0,0,1,5,5v195a5,5,0,0,1,-5,5h-210a5,5,0,0,1,-5,-5v-195a5,5,0,0,1,5,-5z" stroke-width="3"></path><g id="node_text44" fill="black"><text id="kity_text_421" text-rendering="inherit" font-size="12" dy=".8em" y="2117.7000119760633" x="571.5000096336007">Convert a&#xa0;Ternary to binary</text></g><image id="kity_image_426" xmlns:xlink="http://www.w3.org/1999/xlink" xlink:href="http://kityminder-img.gz.bcebos.com/41af0c1600f2c41799a2389b72d65888b0605838" x="561.5000096336007" y="1939.5000120028853" width="200" height="173"></image><g id="kity_g_427" style="cursor: pointer;"><path id="kity_path_428" fill="none" stroke="none" d="M737.00001206249,2117.0000120028853h12a2,2,0,0,1,2,2v13a2,2,0,0,1,-2,2h-12a2,2,0,0,1,-2,-2v-13a2,2,0,0,1,2,-2z"></path><path id="kity_path_429" fill="black" stroke="none" d="M746.0000120997429,2128.000011906028H740.0000120997429V2127.000011906028h6L746.0000120997429,2128.000011906028L746.0000120997429,2128.000011906028zM746.0000120997429,2126.000011906028H740.0000120997429V2125.000011906028h6V2126.000011906028zM746.0000120997429,2124.000011906028H740.0000120997429V2123.000011906028h6V2124.000011906028zM745.5000120997429,2130.000011906028H739.0000120997429V2121.000011906028h8v7.5M746.0000120997429,2131.000011906028l2,-2V2120.000011906028H738.0000120997429v11"></path></g></g><g id="minder_node45"><g id="node_expander44" style="cursor: pointer;" display="none"><path id="kity_path_436" fill="white" stroke="gray" d="M776.5000125989318,894.9999936670065A6,6,0,1,1,764.5000125989318,894.9999936670065A6,6,0,1,1,776.5000125989318,894.9999936670065"></path><path id="kity_path_437" fill="none" stroke="gray"></path></g><path id="node_outline45" fill="none" stroke="none" d="M781.5000139549375,846.4999942258h210a5,5,0,0,1,5,5v87a5,5,0,0,1,-5,5h-210a5,5,0,0,1,-5,-5v-87a5,5,0,0,1,5,-5z" stroke-width="3"></path><g id="node_text45" fill="black"><text id="kity_text_433" text-rendering="inherit" font-size="12" dy=".8em" y="924.699994198978" x="861.5000139549375"></text></g><image id="kity_image_438" xmlns:xlink="http://www.w3.org/1999/xlink" xlink:href="http://kityminder-img.gz.bcebos.com/54046bf5b89e850f892d8b47839524077e10fd94" x="786.5000139549375" y="851.4999942258" width="200" height="70"></image></g><g id="minder_node46"><g id="node_expander45" style="cursor: pointer;" display="none"><path id="kity_path_445" fill="white" stroke="gray" d="M776.5000125989318,986.9999950379133A6,6,0,1,1,764.5000125989318,986.9999950379133A6,6,0,1,1,776.5000125989318,986.9999950379133"></path><path id="kity_path_446" fill="none" stroke="gray" d="M766.0000125989318,986.9999950379133L775.0000125989318,986.9999950379133"></path></g><path id="node_outline46" fill="none" stroke="none" d="M781.5000128373504,973.4999950304627h178a5,5,0,0,1,5,5v17a5,5,0,0,1,-5,5h-178a5,5,0,0,1,-5,-5v-17a5,5,0,0,1,5,-5z" stroke-width="3"></path><g id="node_text46" fill="black"><text id="kity_text_442" text-rendering="inherit" font-size="12" dy=".8em" y="978.6999950036407" x="786.5000128373504">discriminator (partial key)</text></g><g id="kity_g_455" style="cursor: pointer;"><path id="kity_path_456" fill="none" stroke="none" d="M941.0000151023269,977.9999950304627h12a2,2,0,0,1,2,2v13a2,2,0,0,1,-2,2h-12a2,2,0,0,1,-2,-2v-13a2,2,0,0,1,2,-2z"></path><path id="kity_path_457" fill="black" stroke="none" d="M950.0000151395798,988.9999949336052H944.0000151395798V987.9999949336052h6L950.0000151395798,988.9999949336052L950.0000151395798,988.9999949336052zM950.0000151395798,986.9999949336052H944.0000151395798V985.9999949336052h6V986.9999949336052zM950.0000151395798,984.9999949336052H944.0000151395798V983.9999949336052h6V984.9999949336052zM949.5000151395798,990.9999949336052H943.0000151395798V981.9999949336052h8v7.5M950.0000151395798,991.9999949336052l2,-2V980.9999949336052H942.0000151395798v11"></path></g></g><g id="minder_node48"><g id="node_expander47" style="cursor: pointer;" display="none"><path id="kity_path_464" fill="white" stroke="gray" d="M776.5000125989318,1043.9999958872795A6,6,0,1,1,764.5000125989318,1043.9999958872795A6,6,0,1,1,776.5000125989318,1043.9999958872795"></path><path id="kity_path_465" fill="none" stroke="gray"></path></g><path id="node_outline48" fill="none" stroke="none" d="M781.5000128373504,1030.499995879829h102a5,5,0,0,1,5,5v17a5,5,0,0,1,-5,5h-102a5,5,0,0,1,-5,-5v-17a5,5,0,0,1,5,-5z" stroke-width="3"></path><g id="node_text48" fill="black"><text id="kity_text_461" text-rendering="inherit" font-size="12" dy=".8em" y="1035.6999958530068" x="786.5000128373504">primary key&#xa0;</text></g><g id="kity_g_470" style="cursor: pointer;"><path id="kity_path_471" fill="none" stroke="none" d="M865.0000139698386,1034.999995879829h12a2,2,0,0,1,2,2v13a2,2,0,0,1,-2,2h-12a2,2,0,0,1,-2,-2v-13a2,2,0,0,1,2,-2z"></path><path id="kity_path_472" fill="black" stroke="none" d="M874.0000140070915,1045.9999957829714H868.0000140070915V1044.9999957829714h6L874.0000140070915,1045.9999957829714L874.0000140070915,1045.9999957829714zM874.0000140070915,1043.9999957829714H868.0000140070915V1042.9999957829714h6V1043.9999957829714zM874.0000140070915,1041.9999957829714H868.0000140070915V1040.9999957829714h6V1041.9999957829714zM873.5000140070915,1047.9999957829714H867.0000140070915V1038.9999957829714h8v7.5M874.0000140070915,1048.9999957829714l2,-2V1037.9999957829714H866.0000140070915v11"></path></g></g><g id="minder_node49"><g id="node_expander48" style="cursor: pointer;"><path id="kity_path_479" fill="white" stroke="gray" d="M551.5000092461705,2352.0000153779984A6,6,0,1,1,539.5000092461705,2352.0000153779984A6,6,0,1,1,551.5000092461705,2352.0000153779984"></path><path id="kity_path_480" fill="none" stroke="gray" d="M541.0000092461705,2352.0000153779984L550.0000092461705,2352.0000153779984"></path></g><path id="node_outline49" fill="none" stroke="none" d="M556.5000094845891,2338.5000153705478h118a5,5,0,0,1,5,5v17a5,5,0,0,1,-5,5h-118a5,5,0,0,1,-5,-5v-17a5,5,0,0,1,5,-5z" stroke-width="3"></path><g id="node_text49" fill="black"><text id="kity_text_476" text-rendering="inherit" font-size="12" dy=".8em" y="2343.7000153437257" x="561.5000094845891">ISA&#xa0;Hierarchies</text></g><g id="kity_g_508" style="cursor: pointer;"><path id="kity_path_509" fill="none" stroke="none" d="M656.0000108554959,2343.0000153705478h12a2,2,0,0,1,2,2v13a2,2,0,0,1,-2,2h-12a2,2,0,0,1,-2,-2v-13a2,2,0,0,1,2,-2z"></path><path id="kity_path_510" fill="black" stroke="none" d="M665.0000108927488,2354.00001527369H659.0000108927488V2353.00001527369h6L665.0000108927488,2354.00001527369L665.0000108927488,2354.00001527369zM665.0000108927488,2352.00001527369H659.0000108927488V2351.00001527369h6V2352.00001527369zM665.0000108927488,2350.00001527369H659.0000108927488V2349.00001527369h6V2350.00001527369zM664.5000108927488,2356.00001527369H658.0000108927488V2347.00001527369h8v7.5M665.0000108927488,2357.00001527369l2,-2V2346.00001527369H657.0000108927488v11"></path></g></g><g id="minder_node50"><g id="node_expander49" style="cursor: pointer;" display="none"><path id="kity_path_487" fill="white" stroke="gray" d="M719.5000117495656,2216.0000133514404A6,6,0,1,1,707.5000117495656,2216.0000133514404A6,6,0,1,1,719.5000117495656,2216.0000133514404"></path><path id="kity_path_488" fill="none" stroke="gray"></path></g><path id="node_outline50" fill="none" stroke="none" d="M724.5000134631991,2169.5000138804317h210a5,5,0,0,1,5,5v83a5,5,0,0,1,-5,5h-210a5,5,0,0,1,-5,-5v-83a5,5,0,0,1,5,-5z" stroke-width="3"></path><g id="node_text50" fill="black"><text id="kity_text_484" text-rendering="inherit" font-size="12" dy=".8em" y="2243.7000138536096" x="828.5000134631991"> </text></g><image id="kity_image_489" xmlns:xlink="http://www.w3.org/1999/xlink" xlink:href="http://kityminder-img.gz.bcebos.com/fe65e34c93346b702d156ebcaeec9d7a27230e8a" x="729.5000134631991" y="2174.5000138804317" width="200" height="66"></image></g><g id="minder_node51"><g id="node_expander50" style="cursor: pointer;" display="none"><path id="kity_path_496" fill="white" stroke="gray" d="M719.5000117495656,2342.5000152364373A6,6,0,1,1,707.5000117495656,2342.5000152364373A6,6,0,1,1,719.5000117495656,2342.5000152364373"></path><path id="kity_path_497" fill="none" stroke="gray"></path></g><path id="node_outline51" fill="none" stroke="none" d="M724.5000133141875,2292.500015772879h210a5,5,0,0,1,5,5v90a5,5,0,0,1,-5,5h-210a5,5,0,0,1,-5,-5v-90a5,5,0,0,1,5,-5z" stroke-width="3"></path><g id="node_text51" fill="black"><text id="kity_text_493" text-rendering="inherit" font-size="12" dy=".8em" y="2370.700015746057" x="818.5000133141875"> </text></g><image id="kity_image_498" xmlns:xlink="http://www.w3.org/1999/xlink" xlink:href="http://kityminder-img.gz.bcebos.com/08a5a956a809b90c5ddc1abff5814d86173892c3" x="729.5000133141875" y="2297.500015772879" width="200" height="68"></image><g id="kity_g_514" style="cursor: pointer;"><path id="kity_path_515" fill="none" stroke="none" d="M827.0000134035945,2370.000015772879h12a2,2,0,0,1,2,2v13a2,2,0,0,1,-2,2h-12a2,2,0,0,1,-2,-2v-13a2,2,0,0,1,2,-2z"></path><path id="kity_path_516" fill="black" stroke="none" d="M836.0000134408474,2381.0000156760216H830.0000134408474V2380.0000156760216h6L836.0000134408474,2381.0000156760216L836.0000134408474,2381.0000156760216zM836.0000134408474,2379.0000156760216H830.0000134408474V2378.0000156760216h6V2379.0000156760216zM836.0000134408474,2377.0000156760216H830.0000134408474V2376.0000156760216h6V2377.0000156760216zM835.5000134408474,2383.0000156760216H829.0000134408474V2374.0000156760216h8v7.5M836.0000134408474,2384.0000156760216l2,-2V2373.0000156760216H828.0000134408474v11"></path></g></g><g id="minder_node52"><g id="node_expander51" style="cursor: pointer;" display="none"><path id="kity_path_505" fill="white" stroke="gray" d="M719.5000117495656,2478.5000172629952A6,6,0,1,1,707.5000117495656,2478.5000172629952A6,6,0,1,1,719.5000117495656,2478.5000172629952"></path><path id="kity_path_506" fill="none" stroke="gray"></path></g><path id="node_outline52" fill="none" stroke="none" d="M724.5000133141875,2422.500017888844h210a5,5,0,0,1,5,5v102a5,5,0,0,1,-5,5h-210a5,5,0,0,1,-5,-5v-102a5,5,0,0,1,5,-5z" stroke-width="3"></path><g id="node_text52" fill="black"><text id="kity_text_502" text-rendering="inherit" font-size="12" dy=".8em" y="2512.700017862022" x="818.5000133141875"> </text></g><image id="kity_image_507" xmlns:xlink="http://www.w3.org/1999/xlink" xlink:href="http://kityminder-img.gz.bcebos.com/8f2b63849b07e54ddd36e83940b221f46f637f9e" x="729.5000133141875" y="2427.500017888844" width="200" height="80"></image><g id="kity_g_511" style="cursor: pointer;"><path id="kity_path_512" fill="none" stroke="none" d="M827.0000134035945,2512.000017888844h12a2,2,0,0,1,2,2v13a2,2,0,0,1,-2,2h-12a2,2,0,0,1,-2,-2v-13a2,2,0,0,1,2,-2z"></path><path id="kity_path_513" fill="black" stroke="none" d="M836.0000134408474,2523.0000177919865H830.0000134408474V2522.0000177919865h6L836.0000134408474,2523.0000177919865L836.0000134408474,2523.0000177919865zM836.0000134408474,2521.0000177919865H830.0000134408474V2520.0000177919865h6V2521.0000177919865zM836.0000134408474,2519.0000177919865H830.0000134408474V2518.0000177919865h6V2519.0000177919865zM835.5000134408474,2525.0000177919865H829.0000134408474V2516.0000177919865h8v7.5M836.0000134408474,2526.0000177919865l2,-2V2515.0000177919865H828.0000134408474v11"></path></g></g><g id="minder_node53"><g id="node_expander52" style="cursor: pointer;" display="none"><path id="kity_path_523" fill="white" stroke="gray" d="M404.5000070556998,2635.5000196024776A6,6,0,1,1,392.5000070556998,2635.5000196024776A6,6,0,1,1,404.5000070556998,2635.5000196024776"></path><path id="kity_path_524" fill="none" stroke="gray"></path></g><path id="node_outline53" fill="none" stroke="none" d="M409.500007994473,2574.5000203475356h210a5,5,0,0,1,5,5v112a5,5,0,0,1,-5,5h-210a5,5,0,0,1,-5,-5v-112a5,5,0,0,1,5,-5z" stroke-width="3"></path><g id="node_text53" fill="black"><text id="kity_text_520" text-rendering="inherit" font-size="12" dy=".8em" y="2677.7000203207135" x="461.500007994473">Attribute vs Entity</text></g><image id="kity_image_543" xmlns:xlink="http://www.w3.org/1999/xlink" xlink:href="http://kityminder-img.gz.bcebos.com/d68bd738e330e9cc2a3565d652251284ec844f50" x="414.500007994473" y="2579.5000203475356" width="200" height="95"></image></g><g id="minder_node54"><g id="node_expander53" style="cursor: pointer;" display="none"><path id="kity_path_532" fill="white" stroke="gray" d="M404.5000070556998,2788.0000218749046A6,6,0,1,1,392.5000070556998,2788.0000218749046A6,6,0,1,1,404.5000070556998,2788.0000218749046"></path><path id="kity_path_533" fill="none" stroke="gray"></path></g><path id="node_outline54" fill="none" stroke="none" d="M409.50000786036253,2726.5000226274133h210a5,5,0,0,1,5,5v113a5,5,0,0,1,-5,5h-210a5,5,0,0,1,-5,-5v-113a5,5,0,0,1,5,-5z" stroke-width="3"></path><g id="node_text54" fill="black"><text id="kity_text_529" text-rendering="inherit" font-size="12" dy=".8em" y="2830.700022600591" x="452.50000786036253">Entity vs Relationship</text></g><image id="kity_image_544" xmlns:xlink="http://www.w3.org/1999/xlink" xlink:href="http://kityminder-img.gz.bcebos.com/27c812da554e15554f667db76c8b684b0e85cab0" x="414.50000786036253" y="2731.5000226274133" width="200" height="96"></image></g><g id="minder_node55"><g id="node_expander54" style="cursor: pointer;" display="none"><path id="kity_path_541" fill="white" stroke="gray" d="M404.5000070556998,2923.500023894012A6,6,0,1,1,392.5000070556998,2923.500023894012A6,6,0,1,1,404.5000070556998,2923.500023894012"></path><path id="kity_path_542" fill="none" stroke="gray"></path></g><path id="node_outline55" fill="none" stroke="none" d="M409.50000781565905,2879.5000243857503h210a5,5,0,0,1,5,5v78a5,5,0,0,1,-5,5h-210a5,5,0,0,1,-5,-5v-78a5,5,0,0,1,5,-5z" stroke-width="3"></path><g id="node_text55" fill="black"><text id="kity_text_538" text-rendering="inherit" font-size="12" dy=".8em" y="2948.700024358928" x="449.50000781565905">Strong vs. Weak Entity</text></g><image id="kity_image_545" xmlns:xlink="http://www.w3.org/1999/xlink" xlink:href="http://kityminder-img.gz.bcebos.com/0fcc800e19b5eee6c577024dfae512c5a6d39abc" x="414.50000781565905" y="2884.5000243857503" width="200" height="61"></image></g></g></g></svg>